<svg width="1366" height="138" viewBox="0 0 1366 138" fill="none" xmlns="http://www.w3.org/2000/svg">
<path d="M363.41 71.6779L398.011 62.3219L413.439 60.13L431.989 66.3474L442.283 57.5458L466.01 52.6247L476.859 60.13L491.426 52.855L514.394 55.7121L520.185 59.9168L525.387 52.0703L562.684 54.1343L565.148 61.9466L571.289 70.066L586.871 52.3432L604.278 64.6843L615.195 67.6011L670.231 74.7482L691.28 80.3687L697.694 73.1534H706.717L710.93 70.1427H723.357L736.781 79.9678L744.405 76.1555L753.625 57.1108L825.787 91.3878L882.119 96.0018V122.518L0 126.432V62.2707L24.4434 66.3474L64.9975 62.5265L85.6882 63.2174L106.055 70.5009L144.69 62.1428L174.379 65.1108L203.547 57.6652L230.839 57.0511L273.056 68.5734L293.525 58.9445L313.832 60.13L363.41 71.6779Z" fill="#B25538"/>
<path d="M493.029 125.465L491.426 114.838L493.029 107.222V86.574L530.317 84.7745L567.801 92.9876L586.845 93.1923L597.003 59.5209L635.382 49.4911L657.429 49.0902L659.433 46.6851H665.045L674.887 67.5976L690.282 57.9089L721.753 54.3013L730.572 71.1455L744.601 55.5038L753.019 51.8962L768.252 31.2481L789.104 26.6426L791.706 31.4528L805.539 32.6553L819.97 50.0966L826.187 57.5081L845.027 61.3204L852.652 63.5209L855.654 59.717L864.874 60.1179L867.68 63.9217L896.157 52.0497L917.624 51.7427L940.387 68.7234L963.236 70.0624L990.715 58.1051L1029.13 70.4547L1059.83 58.088H1070.07L1086.7 68.3225L1113.99 67.8961L1119.96 63.2053H1128.06L1135.74 68.749L1157.06 57.6616L1178.38 64.7746L1189.47 58.5145L1209.51 59.3674L1226.57 67.4697L1253.86 67.8961L1262.82 63.2053L1292.24 68.3225L1320.39 59.3759L1339.57 58.6424L1357.06 64.0582L1376.25 56.8087H1387.76V127.828L493.029 125.704V125.465Z" fill="#B25538"/>
<path d="M730.572 71.1474L754.103 76.1367L785.787 75.9064L803.936 73.544L818.367 72.9469L834.409 67.5312L852.652 63.5227L845.027 61.3223L779.68 68.9384L756.431 69.3393L735.578 65.5269L730.572 71.1474Z" fill="#844029"/>
<path d="M753.02 51.8976L770.265 55.1044L777.881 54.3027L789.301 55.7099L806.947 53.1001L819.97 50.098L818.367 48.0938L805.54 51.0959L798.324 51.4967L787.902 53.7057L774.674 51.8976L768.252 51.7014L755.024 49.0916L753.02 51.8976Z" fill="#844029"/>
<path d="M1387.78 95.4609L1364.3 107.196L1303.64 107.239L1286.17 99.4524L1245.49 98.9577L1175.09 109.798L1122.67 111.64L1086.7 109.866L1028.31 104.22L1009.09 99.1454L981.035 100.476L966.383 104.015L939.321 109.832L920.072 101.414L904.635 106.42L882.588 112.237L831.876 114.241L818.239 112.237H805.215L796.192 105.619L732.644 107.026L697.839 114.437L642.137 107.026L571.281 114.437H516.023L471.435 107.026L433.32 112.834L386.326 106.42L355.597 109.934L321.465 110.301L262.353 104.766L240.272 104.783L166.617 112.834L78.507 111.717L43.8036 107.401L24.4434 111.179L0 110.634V137.5L1387.75 137.602L1387.78 95.4609Z" fill="#844029"/>
<path d="M911.859 104.613L859.936 107.615L810.827 106.217L798.588 107.769L805.215 112.63H818.239L831.876 114.635L882.588 112.63L898.221 108.622L911.859 104.613Z" fill="#683321"/>
<path d="M927.893 105.227L966.383 104.613L939.322 110.225L927.893 105.227Z" fill="#683321"/>
<path d="M730.572 71.1437L687.672 75.7492L674.888 67.5957L700.5 70.5381L728.704 67.5957L730.572 71.1437Z" fill="#844029"/>
<path d="M947.023 85.2868C947.651 85.2868 948.264 85.1005 948.786 84.7515C949.308 84.4025 949.715 83.9065 949.955 83.3263C950.195 82.746 950.257 82.1077 950.134 81.492C950.011 80.8763 949.708 80.311 949.263 79.8677C948.819 79.4243 948.253 79.1228 947.637 79.0013C947.021 78.8799 946.382 78.9439 945.803 79.1854C945.223 79.4268 944.728 79.8348 944.381 80.3577C944.033 80.8805 943.848 81.4948 943.85 82.1226C943.85 82.5389 943.932 82.951 944.092 83.3355C944.251 83.7199 944.485 84.0691 944.78 84.363C945.075 84.657 945.424 84.8899 945.809 85.0484C946.194 85.2069 946.607 85.2879 947.023 85.2868Z" fill="white"/>
<path d="M956.66 89.9547L952.583 89.4856L949.905 86.8161C949.783 86.6343 949.618 86.4851 949.424 86.3811C949.231 86.2771 949.016 86.2215 948.797 86.2191H945.24C945.076 86.2218 944.914 86.2565 944.763 86.3214H944.703L940.754 87.524L937.343 86.0997L937.104 83.8396C937.095 83.7596 937.055 83.6861 936.993 83.6351C936.931 83.5841 936.851 83.5595 936.771 83.5667L936.311 83.6178C936.27 83.621 936.231 83.6322 936.196 83.6508C936.16 83.6694 936.129 83.695 936.103 83.7261C936.078 83.7571 936.059 83.793 936.048 83.8315C936.036 83.8701 936.033 83.9105 936.038 83.9504L936.259 86.0144C936.045 86.1115 935.875 86.2848 935.782 86.5005C935.731 86.6186 935.705 86.7455 935.704 86.8739C935.703 87.0023 935.727 87.1297 935.775 87.2486C935.824 87.3676 935.895 87.4757 935.985 87.5669C936.076 87.6581 936.183 87.7305 936.302 87.7798L936.447 87.8395L938.247 104.948C938.255 105.028 938.295 105.102 938.357 105.153C938.419 105.204 938.499 105.228 938.579 105.221L939.04 105.17C939.08 105.167 939.119 105.156 939.154 105.137C939.19 105.118 939.221 105.093 939.247 105.062C939.272 105.031 939.291 104.995 939.303 104.956C939.314 104.918 939.317 104.877 939.313 104.837L937.607 88.3086L940.396 89.4771C940.533 89.5334 940.68 89.5581 940.828 89.5492C940.976 89.5404 941.12 89.4982 941.249 89.4259L943.91 88.6157V103.285C943.938 103.654 944.104 103.998 944.375 104.249C944.647 104.501 945.003 104.64 945.372 104.64C945.742 104.64 946.098 104.501 946.369 104.249C946.641 103.998 946.807 103.654 946.835 103.285V95.976H947.321V97.5026C947.321 97.5879 947.321 97.6647 947.372 97.7499C947.389 98.0977 947.501 98.4341 947.696 98.7222L950.801 103.106C951.039 103.411 951.39 103.609 951.774 103.657C952.159 103.704 952.547 103.596 952.852 103.358C953.157 103.119 953.355 102.769 953.403 102.384C953.45 101.999 953.342 101.612 953.104 101.306L950.229 97.5964C950.229 97.5964 950.229 97.5367 950.229 97.5026V89.8267L951.458 91.0549C951.54 91.1327 951.635 91.1962 951.739 91.2425H951.824C951.913 91.2876 952.008 91.3193 952.106 91.3363L956.472 91.831C956.729 91.8593 956.987 91.7844 957.188 91.6229C957.39 91.4613 957.519 91.2263 957.547 90.9696C957.575 90.7129 957.501 90.4554 957.339 90.2539C957.177 90.0524 956.942 89.9233 956.686 89.895L956.66 89.9547Z" fill="white"/>
<path d="M898.503 89.5505C899.131 89.5505 899.744 89.3642 900.266 89.0152C900.788 88.6662 901.195 88.1702 901.435 87.5899C901.675 87.0097 901.737 86.3713 901.614 85.7557C901.491 85.14 901.188 84.5747 900.743 84.1313C900.299 83.688 899.732 83.3865 899.116 83.265C898.5 83.1436 897.862 83.2076 897.283 83.449C896.703 83.6905 896.208 84.0985 895.861 84.6213C895.513 85.1442 895.328 85.7584 895.33 86.3863C895.33 86.8025 895.412 87.2147 895.572 87.5991C895.731 87.9836 895.965 88.3328 896.26 88.6267C896.555 88.9207 896.904 89.1535 897.289 89.3121C897.674 89.4706 898.087 89.5516 898.503 89.5505Z" fill="white"/>
<path d="M904.413 94.8654C904.396 94.7958 904.367 94.7295 904.328 94.6692C904.3 94.6088 904.266 94.5516 904.226 94.4986L901.573 91.0871C901.547 91.0592 901.518 91.0336 901.488 91.0104C901.396 90.868 901.27 90.7512 901.121 90.6707C900.971 90.5902 900.804 90.5486 900.635 90.5498H896.371C896.223 90.55 896.078 90.583 895.945 90.6465C895.813 90.7099 895.696 90.8022 895.603 90.9166C895.532 90.9666 895.466 91.0238 895.407 91.0871L892.746 94.4986C892.706 94.5516 892.671 94.6088 892.644 94.6692C892.553 94.8154 892.508 94.9857 892.515 95.1577C892.523 95.3297 892.583 95.4954 892.686 95.633L895.117 99.3003C895.178 99.3912 895.256 99.4693 895.347 99.5306V107.624C895.332 107.826 895.358 108.028 895.425 108.219C895.491 108.41 895.596 108.585 895.734 108.733C895.871 108.881 896.038 109 896.223 109.08C896.408 109.161 896.608 109.203 896.81 109.203C897.012 109.203 897.212 109.161 897.397 109.08C897.582 109 897.749 108.881 897.886 108.733C898.023 108.585 898.129 108.41 898.195 108.219C898.262 108.028 898.288 107.826 898.272 107.624V100.315H898.759V107.624C898.743 107.826 898.77 108.028 898.836 108.219C898.903 108.41 899.008 108.585 899.145 108.733C899.283 108.881 899.449 109 899.634 109.08C899.819 109.161 900.019 109.203 900.221 109.203C900.423 109.203 900.623 109.161 900.808 109.08C900.994 109 901.16 108.881 901.297 108.733C901.435 108.585 901.54 108.41 901.607 108.219C901.673 108.028 901.699 107.826 901.684 107.624V99.488C901.755 99.4342 901.818 99.3711 901.872 99.3003L904.302 95.633C904.372 95.5193 904.418 95.3926 904.437 95.2606C904.456 95.1286 904.448 94.9941 904.413 94.8654ZM894.69 95.1554L895.33 94.3025V96.085L894.69 95.1554ZM901.667 96.0594V94.3963L902.264 95.1554L901.667 96.0594Z" fill="white"/>
<path d="M851.33 88.7008C851.958 88.7025 852.572 88.5179 853.095 88.1703C853.618 87.8227 854.026 87.3278 854.267 86.7482C854.509 86.1686 854.573 85.5304 854.451 84.9144C854.33 84.2984 854.029 83.7323 853.585 83.2878C853.142 82.8432 852.577 82.5402 851.961 82.4171C851.345 82.2939 850.707 82.3563 850.127 82.5962C849.546 82.836 849.05 83.2427 848.701 83.7646C848.352 84.2865 848.166 84.9003 848.166 85.5281C848.166 86.3681 848.499 87.1738 849.092 87.7686C849.685 88.3633 850.49 88.6986 851.33 88.7008Z" fill="white"/>
<path d="M854.503 98.6694V92.9637L855.808 94.2686L856.405 98.2686C856.424 98.3951 856.468 98.5167 856.534 98.6264C856.6 98.736 856.687 98.8316 856.79 98.9076C856.893 98.9836 857.01 99.0386 857.134 99.0695C857.258 99.1003 857.387 99.1064 857.514 99.0873C857.64 99.0683 857.762 99.0245 857.872 98.9585C857.981 98.8925 858.077 98.8055 858.153 98.7025C858.229 98.5996 858.284 98.4827 858.315 98.3585C858.346 98.2342 858.352 98.1052 858.333 97.9786L857.71 93.8336C857.71 93.8336 857.71 93.7825 857.71 93.7569V93.6289C857.693 93.5549 857.668 93.4833 857.633 93.4157C857.565 93.2568 857.456 93.1186 857.318 93.0149L854.367 90.0639C854.295 89.9802 854.206 89.9126 854.106 89.8656C854.006 89.8185 853.897 89.7931 853.787 89.791H849.011C848.869 89.793 848.73 89.8337 848.61 89.9089C848.49 89.9841 848.392 90.0908 848.328 90.2175C848.287 90.2557 848.249 90.2987 848.218 90.3454L846.188 93.8592L842.495 95.9914C842.384 96.0551 842.286 96.14 842.208 96.2414C842.13 96.3428 842.073 96.4586 842.039 96.5822C842.006 96.7059 841.997 96.8348 842.014 96.9618C842.031 97.0887 842.072 97.2111 842.137 97.3219C842.268 97.5428 842.481 97.7038 842.729 97.7707C842.978 97.8376 843.242 97.8051 843.467 97.6801L847.092 95.582C847.219 95.5524 847.34 95.4971 847.445 95.4193C847.551 95.3416 847.64 95.2432 847.706 95.13L848.235 94.2174V98.6183L847.45 99.7526C847.325 99.942 847.246 100.158 847.22 100.384C847.22 100.384 847.22 100.478 847.22 100.52L846.367 105.825C846.344 106.015 846.359 106.209 846.41 106.393C846.462 106.578 846.549 106.751 846.668 106.901C846.786 107.052 846.933 107.178 847.1 107.272C847.267 107.367 847.451 107.427 847.642 107.45C847.832 107.473 848.025 107.458 848.21 107.406C848.395 107.355 848.567 107.267 848.718 107.149C848.869 107.03 848.995 106.883 849.089 106.716C849.183 106.549 849.244 106.365 849.267 106.175L849.855 101.492C849.855 101.492 849.915 101.441 849.932 101.407L851.22 99.5479H851.723V101.075C851.732 101.158 851.749 101.241 851.774 101.322C851.787 101.669 851.896 102.006 852.09 102.294L855.194 106.678C855.312 106.83 855.459 106.957 855.627 107.051C855.795 107.146 855.979 107.207 856.17 107.23C856.361 107.253 856.555 107.237 856.74 107.185C856.926 107.133 857.099 107.045 857.249 106.925C857.554 106.687 857.75 106.337 857.797 105.953C857.843 105.569 857.735 105.183 857.497 104.878L854.623 101.168C854.626 101.137 854.626 101.106 854.623 101.075L854.503 98.6694Z" fill="white"/>
<path d="M816.883 88.4079C816.255 88.4079 815.641 88.2216 815.119 87.8726C814.597 87.5236 814.191 87.0276 813.951 86.4474C813.711 85.8671 813.648 85.2288 813.772 84.6131C813.895 83.9974 814.198 83.4321 814.642 82.9887C815.087 82.5454 815.653 82.2439 816.269 82.1224C816.885 82.001 817.523 82.065 818.103 82.3065C818.682 82.5479 819.177 82.9559 819.525 83.4788C819.872 84.0016 820.057 84.6159 820.055 85.2437C820.053 86.0837 819.718 86.8885 819.123 87.4816C818.528 88.0748 817.723 88.4079 816.883 88.4079Z" fill="white"/>
<path d="M807.237 93.1214L811.322 92.6609L814 89.9828C814.122 89.8033 814.286 89.6561 814.478 89.5536C814.669 89.4511 814.883 89.3965 815.1 89.3943H818.665C818.829 89.395 818.991 89.4268 819.143 89.4882H819.202L823.151 90.6822L826.563 89.2579L826.802 86.9978C826.81 86.9178 826.85 86.8443 826.912 86.7933C826.974 86.7423 827.054 86.7177 827.134 86.7249L827.595 86.776C827.675 86.7846 827.748 86.8243 827.799 86.8865C827.85 86.9487 827.875 87.0285 827.868 87.1086L827.646 89.1726C827.817 89.2478 827.963 89.3713 828.066 89.5281C828.168 89.6848 828.223 89.868 828.223 90.0553C828.223 90.2426 828.168 90.4258 828.066 90.5826C827.963 90.7394 827.817 90.8629 827.646 90.9381L827.501 90.9978L825.701 108.106C825.693 108.186 825.653 108.26 825.591 108.311C825.529 108.362 825.449 108.386 825.369 108.379L824.908 108.328C824.868 108.325 824.829 108.314 824.794 108.295C824.758 108.277 824.726 108.251 824.701 108.22C824.675 108.189 824.657 108.153 824.645 108.114C824.634 108.076 824.631 108.035 824.635 107.996L826.341 91.4668L823.552 92.6353C823.416 92.6963 823.268 92.7235 823.119 92.7146C822.971 92.7056 822.827 92.6609 822.699 92.5841L820.038 91.7824V106.443C820.054 106.645 820.027 106.847 819.961 107.038C819.894 107.229 819.789 107.404 819.652 107.552C819.514 107.7 819.348 107.819 819.163 107.899C818.978 107.98 818.778 108.022 818.576 108.022C818.374 108.022 818.174 107.98 817.989 107.899C817.803 107.819 817.637 107.7 817.5 107.552C817.362 107.404 817.257 107.229 817.19 107.038C817.124 106.847 817.098 106.645 817.113 106.443V99.1342H816.618V100.644C816.622 100.726 816.622 100.809 816.618 100.891C816.603 101.239 816.491 101.576 816.294 101.863L813.19 106.247C812.951 106.553 812.601 106.751 812.216 106.798C811.832 106.845 811.444 106.737 811.139 106.499C810.833 106.26 810.635 105.91 810.588 105.525C810.541 105.141 810.648 104.753 810.887 104.448L813.761 100.738C813.757 100.706 813.757 100.675 813.761 100.644V92.9679L812.542 94.196C812.461 94.2767 812.365 94.3405 812.26 94.3837C812.232 94.3874 812.203 94.3874 812.175 94.3837C812.088 94.4326 811.992 94.4644 811.893 94.4775L807.527 94.9721C807.4 94.9867 807.271 94.9761 807.148 94.9409C807.025 94.9057 806.91 94.8466 806.81 94.767C806.709 94.6874 806.626 94.5889 806.564 94.477C806.502 94.3651 806.462 94.2421 806.448 94.115C806.433 93.9879 806.444 93.8591 806.479 93.7361C806.514 93.6131 806.573 93.4982 806.653 93.398C806.732 93.2979 806.831 93.2143 806.943 93.1522C807.055 93.0901 807.178 93.0507 807.305 93.0361L807.237 93.1214Z" fill="white"/>
<path d="M878.946 90.9294C879.574 90.9294 880.187 90.7433 880.709 90.3947C881.231 90.0461 881.637 89.5506 881.877 88.9708C882.117 88.3911 882.18 87.7532 882.058 87.1377C881.935 86.5223 881.633 85.957 881.19 85.5132C880.746 85.0695 880.181 84.7674 879.565 84.6449C878.95 84.5225 878.312 84.5854 877.732 84.8255C877.152 85.0656 876.657 85.4723 876.308 85.994C875.96 86.5158 875.773 87.1292 875.773 87.7567C875.776 88.5974 876.111 89.4031 876.705 89.9976C877.3 90.5921 878.105 90.9271 878.946 90.9294Z" fill="white"/>
<path d="M888.695 95.1038L884.353 94.865L882.844 94.1827L884.703 94.3959C884.836 94.407 884.971 94.3916 885.098 94.3506C885.225 94.3096 885.343 94.2439 885.445 94.1571L888.908 91.5132C889.087 91.3475 889.199 91.1207 889.22 90.8773C889.241 90.6338 889.171 90.3912 889.022 90.197C888.874 90.0028 888.658 89.871 888.418 89.8273C888.178 89.7836 887.929 89.8313 887.722 89.961L884.515 92.4088L880.601 91.9653C880.52 91.9401 880.437 91.9229 880.353 91.9141H877.607C877.13 91.9141 876.672 92.1037 876.335 92.4412C875.997 92.7787 875.808 93.2364 875.808 93.7136V101.662V102.839L874.835 108.059C874.773 108.25 874.752 108.452 874.771 108.653C874.791 108.853 874.851 109.047 874.948 109.223C875.046 109.399 875.179 109.552 875.338 109.675C875.498 109.797 875.681 109.885 875.876 109.934C876.071 109.983 876.274 109.991 876.473 109.958C876.671 109.924 876.861 109.851 877.029 109.741C877.198 109.632 877.343 109.489 877.454 109.321C877.565 109.154 877.64 108.965 877.675 108.767L878.725 103.496C878.759 103.276 878.759 103.051 878.725 102.831V101.662H879.936L881.445 103.274H881.513L882.085 107.897C882.15 108.266 882.355 108.596 882.656 108.819C882.957 109.042 883.332 109.141 883.704 109.097C884.076 109.052 884.417 108.866 884.657 108.578C884.897 108.29 885.017 107.921 884.993 107.547L884.098 102.242C884.029 101.832 883.828 101.454 883.526 101.168L882.119 99.6752V95.9652L883.518 96.5964C883.596 96.6127 883.678 96.6127 883.756 96.5964C883.882 96.6759 884.026 96.7228 884.174 96.7328L888.567 96.9716C888.824 96.9852 889.077 96.8958 889.269 96.723C889.461 96.5503 889.577 96.3084 889.59 96.0505C889.604 95.7927 889.514 95.54 889.342 95.348C889.169 95.1561 888.927 95.0406 888.669 95.0271L888.695 95.1038Z" fill="white"/>
<path d="M874.094 92.0596H872.865C872.418 92.0596 872.055 92.4223 872.055 92.8698V99.4369C872.055 99.8844 872.418 100.247 872.865 100.247H874.094C874.541 100.247 874.904 99.8844 874.904 99.4369V92.8698C874.904 92.4223 874.541 92.0596 874.094 92.0596Z" fill="white"/>
<path d="M623.237 109.003L484.756 108.909L516.023 114.436H571.28L623.237 109.003Z" fill="#683321"/>
<path d="M657.003 109.006L715.834 110.609L697.838 114.439L657.003 109.006Z" fill="#683321"/>
<path d="M456.978 109.226C451.733 110.027 393.49 107.4 393.49 107.4L433.319 112.833L456.978 109.226Z" fill="#683321"/>
<path d="M483.597 79.0464L486.752 70.2277L534.735 71.6776L565.148 61.9463L571.289 70.0657L543.477 77.2383L483.597 79.0464Z" fill="#844029"/>
<path d="M486.752 70.2252L483.58 79.044L438.608 80.3403L363.41 71.641L384.646 65.9268C391.904 66.1144 437.661 74.174 438.591 74.0035C442.309 73.3468 486.752 70.2252 486.752 70.2252Z" fill="#844029"/>
<path d="M571.289 70.0659L576.321 64.3431L607.11 69.8271L644.986 68.0104L671.365 60.1299L674.888 67.6011L640.389 77.2385L600.244 76.1383L571.289 70.0659Z" fill="#844029"/>
<path d="M867.68 63.9183L876.175 60.3789L907.219 68.2509L922.895 68.72L934.827 64.575L940.388 68.72L920.78 75.7477L906.691 73.9993L867.68 63.9183Z" fill="#844029"/>
<path d="M963.048 69.9001L969.65 67.0259L981.547 75.9726L995.79 73.2007L1014.63 65.7637L1015.06 75.9982L988.839 80.1772L976.259 79.6485L963.048 69.9001Z" fill="#844029"/>
<path d="M520.185 59.9135L522.087 57.0479L530.939 58.711H553.549L564.585 60.1694L565.148 61.9433L545.737 60.1267L520.185 59.9135Z" fill="#844029"/>
<path d="M520.185 59.9164L518.522 58.7139L505.038 61.9463H491.426L479.699 58.7139L476.859 60.1296L488.927 63.217L508.79 63.1403L520.185 59.9164Z" fill="#844029"/>
<path d="M431.989 66.3488L428.314 65.1121L416.783 65.9309L404.808 65.1121L398.011 62.3232L393.474 63.5514L414.787 67.901L431.989 66.3488Z" fill="#844029"/>
<path d="M476.859 60.1296L474.812 58.7139L461.354 62.5262L447.435 64.2746H434.411L431.989 66.3471H447.699L476.859 60.1296Z" fill="#844029"/>
<path d="M540.943 94.5387C541.571 94.5404 542.186 94.3558 542.708 94.0082C543.231 93.6606 543.639 93.1657 543.881 92.5861C544.122 92.0065 544.186 91.3683 544.065 90.7523C543.943 90.1363 543.642 89.5702 543.198 89.1256C542.755 88.6811 542.19 88.3781 541.574 88.2549C540.958 88.1318 540.32 88.1942 539.74 88.4341C539.16 88.6739 538.664 89.0806 538.315 89.6025C537.966 90.1244 537.779 90.7382 537.779 91.366C537.779 92.206 538.112 93.0117 538.706 93.6065C539.299 94.2012 540.104 94.5365 540.943 94.5387Z" fill="white"/>
<path d="M546.863 99.7866C546.842 99.7183 546.813 99.6526 546.777 99.5905C546.752 99.5317 546.717 99.4771 546.675 99.4284L544.014 96.0169C544.014 96.0169 543.954 95.9743 543.929 95.9402C543.838 95.7967 543.712 95.679 543.563 95.5983C543.413 95.5177 543.246 95.4768 543.076 95.4796H538.812C538.663 95.4798 538.517 95.5127 538.382 95.5761C538.248 95.6395 538.13 95.7318 538.035 95.8464C537.966 95.8986 537.901 95.9556 537.839 96.0169L535.187 99.4284C535.145 99.479 535.108 99.5332 535.076 99.5905C535.043 99.6528 535.017 99.7186 534.999 99.7866C534.965 99.9178 534.959 100.055 534.981 100.188C535.003 100.322 535.053 100.449 535.127 100.563L537.558 104.222C537.619 104.312 537.697 104.391 537.788 104.452V112.58C537.816 112.948 537.983 113.293 538.254 113.544C538.525 113.795 538.881 113.935 539.251 113.935C539.621 113.935 539.977 113.795 540.248 113.544C540.519 113.293 540.685 112.948 540.713 112.58V105.262H541.2V112.58C541.228 112.948 541.394 113.293 541.665 113.544C541.937 113.795 542.293 113.935 542.662 113.935C543.032 113.935 543.388 113.795 543.659 113.544C543.931 113.293 544.097 112.948 544.125 112.58V104.435C544.198 104.383 544.261 104.32 544.313 104.247L546.743 100.588C546.818 100.47 546.867 100.338 546.887 100.2C546.908 100.062 546.899 99.9213 546.863 99.7866ZM537.14 100.077L537.78 99.2237V101.015L537.14 100.077ZM544.116 100.981V99.2749L544.713 100.034L544.116 100.981Z" fill="white"/>
<path d="M560.876 92.6677C561.503 92.6677 562.117 92.4816 562.638 92.133C563.16 91.7843 563.567 91.2888 563.807 90.7091C564.047 90.1294 564.11 89.4914 563.988 88.876C563.865 88.2606 563.563 87.6952 563.119 87.2515C562.676 86.8078 562.11 86.5056 561.495 86.3832C560.879 86.2608 560.241 86.3236 559.662 86.5638C559.082 86.8039 558.586 87.2106 558.238 87.7323C557.889 88.2541 557.703 88.8675 557.703 89.495C557.703 89.9116 557.785 90.3242 557.945 90.7091C558.104 91.094 558.338 91.4438 558.632 91.7384C558.927 92.033 559.277 92.2667 559.662 92.4261C560.047 92.5856 560.459 92.6677 560.876 92.6677Z" fill="white"/>
<path d="M570.573 96.8365L566.232 96.5977L564.722 95.9239L566.582 96.1372C566.714 96.149 566.847 96.1339 566.973 96.0929C567.099 96.0518 567.215 95.9857 567.315 95.8984L570.786 93.2544C570.966 93.0887 571.077 92.862 571.098 92.6185C571.119 92.375 571.049 92.1324 570.901 91.9382C570.752 91.744 570.537 91.6122 570.296 91.5685C570.056 91.5249 569.808 91.5725 569.601 91.7022L566.394 94.15L562.479 93.7065C562.399 93.6813 562.316 93.6642 562.232 93.6553H559.486C559.01 93.6553 558.553 93.8437 558.216 94.1794C557.879 94.515 557.688 94.9705 557.686 95.4463V103.404V104.572L556.722 109.8C556.676 109.986 556.666 110.179 556.695 110.369C556.723 110.558 556.788 110.741 556.887 110.905C556.985 111.069 557.115 111.213 557.269 111.327C557.423 111.441 557.598 111.523 557.784 111.57C557.97 111.616 558.163 111.626 558.353 111.598C558.542 111.569 558.725 111.504 558.889 111.406C559.053 111.307 559.196 111.177 559.311 111.023C559.425 110.869 559.507 110.694 559.554 110.508L560.603 105.237C560.647 105.018 560.647 104.792 560.603 104.572V103.404H561.822L563.332 105.016H563.4L563.972 109.638C564.037 110.007 564.242 110.337 564.543 110.56C564.844 110.783 565.219 110.883 565.591 110.838C565.963 110.793 566.304 110.608 566.544 110.32C566.783 110.031 566.904 109.662 566.88 109.288L566.027 104.052C565.958 103.641 565.758 103.264 565.456 102.977L564.04 101.485V97.7747L565.447 98.4058C565.526 98.4229 565.607 98.4229 565.686 98.4058C565.814 98.4815 565.956 98.5281 566.104 98.5423L570.496 98.7811C570.754 98.7946 571.007 98.7052 571.199 98.5325C571.391 98.3597 571.506 98.1178 571.52 97.86C571.533 97.6021 571.444 97.3494 571.271 97.1575C571.098 96.9655 570.856 96.8501 570.599 96.8365H570.573Z" fill="white"/>
<path d="M556.022 93.792H554.794C554.347 93.792 553.984 94.1547 553.984 94.6022V101.169C553.984 101.617 554.347 101.98 554.794 101.98H556.022C556.47 101.98 556.833 101.617 556.833 101.169V94.6022C556.833 94.1547 556.47 93.792 556.022 93.792Z" fill="white"/>
<path d="M487.179 89.818C486.551 89.818 485.938 89.632 485.416 89.2833C484.894 88.9347 484.487 88.4392 484.247 87.8595C484.007 87.2797 483.944 86.6418 484.067 86.0264C484.189 85.4109 484.491 84.8456 484.935 84.4019C485.379 83.9582 485.944 83.656 486.56 83.5336C487.175 83.4112 487.813 83.474 488.393 83.7142C488.972 83.9543 489.468 84.3609 489.817 84.8827C490.165 85.4044 490.351 86.0178 490.351 86.6453C490.351 87.4868 490.017 88.2938 489.422 88.8888C488.827 89.4838 488.02 89.818 487.179 89.818Z" fill="white"/>
<path d="M477.533 94.5159L481.618 94.0554L484.296 91.3774C484.419 91.1967 484.585 91.0487 484.778 90.9461C484.971 90.8436 485.186 90.7896 485.405 90.7889H488.961C489.125 90.7937 489.286 90.8254 489.439 90.8827H489.499L493.448 92.0767L496.859 90.6524L497.098 88.3923C497.106 88.3123 497.146 88.2389 497.208 88.1878C497.27 88.1368 497.35 88.1122 497.43 88.1194L497.891 88.1706C497.971 88.1792 498.044 88.2189 498.095 88.2811C498.146 88.3433 498.171 88.423 498.164 88.5032L497.942 90.5671C498.112 90.6464 498.255 90.7734 498.354 90.9326C498.453 91.0919 498.503 91.2765 498.498 91.4638C498.494 91.6511 498.435 91.8331 498.328 91.9874C498.222 92.1417 498.073 92.2617 497.899 92.3326L497.755 92.4008L495.955 109.509C495.944 109.588 495.904 109.659 495.842 109.708C495.78 109.758 495.701 109.781 495.622 109.774L495.162 109.731C495.082 109.723 495.008 109.683 494.957 109.621C494.906 109.558 494.882 109.479 494.889 109.399L496.595 92.8699L493.814 94.0383C493.679 94.0985 493.531 94.126 493.383 94.1186C493.235 94.1112 493.09 94.0691 492.961 93.9957L490.3 93.1855V107.846C490.316 108.048 490.289 108.25 490.223 108.441C490.156 108.632 490.051 108.807 489.914 108.955C489.776 109.103 489.61 109.222 489.425 109.302C489.24 109.383 489.04 109.425 488.838 109.425C488.636 109.425 488.436 109.383 488.251 109.302C488.065 109.222 487.899 109.103 487.762 108.955C487.624 108.807 487.519 108.632 487.453 108.441C487.386 108.25 487.36 108.048 487.375 107.846V100.537H486.889V102.064C486.877 102.147 486.86 102.23 486.838 102.311C486.822 102.659 486.71 102.996 486.514 103.283L483.409 107.667C483.171 107.973 482.82 108.171 482.436 108.218C482.051 108.265 481.663 108.157 481.358 107.919C481.053 107.68 480.855 107.33 480.807 106.945C480.76 106.561 480.868 106.173 481.106 105.868L483.981 102.158C483.981 102.158 483.981 102.098 483.981 102.064V94.388L482.752 95.6076C482.672 95.6883 482.576 95.7521 482.471 95.7953H482.386C482.297 95.8377 482.202 95.8664 482.104 95.8805L477.738 96.3752C477.481 96.4046 477.223 96.3308 477.021 96.1701C476.818 96.0093 476.688 95.7748 476.659 95.5181C476.629 95.2613 476.703 95.0034 476.864 94.8011C477.025 94.5988 477.259 94.4686 477.516 94.4392L477.533 94.5159Z" fill="white"/>
<path d="M440.126 92.5387C440.754 92.5404 441.369 92.3556 441.892 92.0076C442.415 91.6596 442.823 91.1642 443.064 90.5841C443.305 90.004 443.369 89.3654 443.247 88.7492C443.125 88.1329 442.822 87.5668 442.378 87.1226C441.934 86.6784 441.368 86.3761 440.751 86.2539C440.135 86.1318 439.497 86.1953 438.916 86.4365C438.336 86.6777 437.841 87.0857 437.493 87.6087C437.145 88.1318 436.96 88.7463 436.962 89.3746C436.964 90.2131 437.298 91.0166 437.891 91.6095C438.484 92.2024 439.288 92.5365 440.126 92.5387Z" fill="white"/>
<path d="M449.226 99.9653L445.456 97.7905L443.316 94.0719C443.251 93.9561 443.161 93.8568 443.051 93.782C442.972 93.6988 442.877 93.6325 442.771 93.5871C442.666 93.5417 442.552 93.518 442.437 93.5176H438.454C438.253 93.5176 438.055 93.5584 437.87 93.6376C437.685 93.7167 437.518 93.8326 437.38 93.9781L434.429 96.9376C434.287 97.0336 434.177 97.1704 434.113 97.3299C434.077 97.4008 434.049 97.4751 434.028 97.5517V97.6796C434.028 97.6796 434.028 97.7308 434.028 97.7564L433.405 101.893C433.377 102.024 433.376 102.159 433.402 102.291C433.428 102.422 433.481 102.547 433.557 102.657C433.634 102.768 433.732 102.861 433.845 102.932C433.959 103.003 434.086 103.05 434.219 103.07C434.351 103.089 434.487 103.082 434.616 103.047C434.746 103.013 434.867 102.952 434.972 102.869C435.077 102.786 435.164 102.682 435.228 102.564C435.291 102.446 435.33 102.316 435.341 102.183L435.938 98.1913L437.039 97.0911V104.767C437.039 104.767 437.039 104.827 437.039 104.861L434.113 108.596C433.995 108.748 433.908 108.921 433.857 109.106C433.805 109.29 433.791 109.484 433.814 109.674C433.838 109.865 433.898 110.049 433.993 110.216C434.087 110.383 434.214 110.529 434.365 110.648C434.516 110.766 434.689 110.853 434.874 110.904C435.059 110.956 435.252 110.97 435.443 110.947C435.633 110.923 435.817 110.863 435.984 110.768C436.151 110.674 436.298 110.547 436.416 110.396L439.52 106.012C439.717 105.725 439.829 105.388 439.845 105.04C439.845 104.955 439.896 104.878 439.896 104.793V103.266H440.39L441.678 105.134C441.678 105.134 441.738 105.134 441.755 105.21L442.343 109.893C442.366 110.083 442.427 110.267 442.521 110.434C442.615 110.601 442.741 110.748 442.892 110.867C443.043 110.985 443.215 111.073 443.4 111.124C443.585 111.176 443.778 111.191 443.968 111.168C444.159 111.145 444.343 111.085 444.51 110.991C444.677 110.896 444.824 110.77 444.942 110.62C445.061 110.469 445.148 110.296 445.2 110.111C445.251 109.927 445.266 109.733 445.243 109.543L444.39 104.247C444.394 104.198 444.394 104.15 444.39 104.102C444.368 103.875 444.289 103.658 444.16 103.471L443.384 102.336V97.9355L443.904 98.848C443.983 98.9821 444.094 99.0937 444.228 99.1721C444.306 99.2868 444.408 99.3829 444.527 99.4536L448.339 101.654C448.563 101.781 448.829 101.815 449.078 101.748C449.327 101.681 449.54 101.518 449.67 101.296C449.731 101.18 449.767 101.053 449.778 100.922C449.789 100.792 449.773 100.66 449.731 100.536C449.69 100.412 449.624 100.297 449.537 100.199C449.45 100.101 449.344 100.022 449.226 99.9653Z" fill="white"/>
<path d="M683.348 94.488C683.976 94.488 684.589 94.3019 685.111 93.9533C685.633 93.6046 686.04 93.1091 686.28 92.5294C686.52 91.9497 686.583 91.3117 686.46 90.6963C686.338 90.0809 686.036 89.5155 685.592 89.0718C685.148 88.6281 684.583 88.326 683.967 88.2035C683.352 88.0811 682.714 88.144 682.134 88.3841C681.555 88.6242 681.059 89.0309 680.711 89.5526C680.362 90.0744 680.176 90.6878 680.176 91.3153C680.175 91.7322 680.256 92.1453 680.415 92.5307C680.574 92.9162 680.808 93.2664 681.103 93.5612C681.397 93.856 681.748 94.0897 682.133 94.2487C682.518 94.4078 682.931 94.4891 683.348 94.488Z" fill="white"/>
<path d="M693.071 98.6624L688.73 98.4236L687.229 97.7413L689.08 97.9545C689.212 97.9703 689.347 97.9579 689.475 97.9182C689.603 97.8786 689.721 97.8125 689.822 97.7243L693.293 95.0718C693.472 94.9061 693.584 94.6793 693.605 94.4359C693.626 94.1924 693.555 93.9498 693.407 93.7556C693.259 93.5614 693.043 93.4296 692.803 93.3859C692.562 93.3422 692.314 93.3899 692.107 93.5196L688.9 95.9673L684.986 95.5239C684.9 95.5239 684.824 95.4727 684.738 95.4727H681.992C681.515 95.4727 681.057 95.6623 680.72 95.9998C680.382 96.3372 680.193 96.795 680.193 97.2722V105.221V106.398L679.22 111.626C679.155 111.992 679.232 112.369 679.434 112.681C679.636 112.992 679.949 113.216 680.31 113.306C680.671 113.396 681.052 113.345 681.377 113.165C681.702 112.985 681.946 112.688 682.06 112.334L683.109 107.055C683.148 106.837 683.148 106.615 683.109 106.398V105.221H684.32L685.839 106.833C685.858 106.855 685.881 106.872 685.907 106.884L686.478 111.498C686.491 111.697 686.544 111.892 686.634 112.07C686.725 112.248 686.851 112.405 687.004 112.533C687.158 112.661 687.335 112.756 687.527 112.812C687.718 112.869 687.919 112.885 688.117 112.862C688.315 112.838 688.507 112.774 688.679 112.674C688.852 112.573 689.002 112.439 689.121 112.278C689.24 112.118 689.325 111.935 689.37 111.741C689.416 111.547 689.421 111.345 689.387 111.149L688.491 105.852C688.423 105.439 688.219 105.061 687.911 104.778L686.504 103.276V99.5665L687.911 100.198C687.989 100.219 688.072 100.219 688.15 100.198C688.275 100.279 688.419 100.326 688.568 100.334L692.952 100.573C693.079 100.58 693.207 100.562 693.328 100.52C693.449 100.478 693.56 100.412 693.655 100.327C693.751 100.242 693.828 100.139 693.884 100.024C693.94 99.9087 693.972 99.7837 693.979 99.656C693.987 99.5283 693.969 99.4005 693.926 99.2797C693.884 99.159 693.819 99.0477 693.734 98.9523C693.649 98.8569 693.545 98.7791 693.43 98.7235C693.315 98.6679 693.19 98.6356 693.062 98.6283L693.071 98.6624Z" fill="white"/>
<path d="M678.495 95.6201H677.267C676.82 95.6201 676.457 95.9829 676.457 96.4303V102.997C676.457 103.445 676.82 103.808 677.267 103.808H678.495C678.943 103.808 679.306 103.445 679.306 102.997V96.4303C679.306 95.9829 678.943 95.6201 678.495 95.6201Z" fill="white"/>
<path d="M705.54 92.6052C704.912 92.6052 704.299 92.4191 703.777 92.0705C703.255 91.7218 702.849 91.2263 702.609 90.6466C702.369 90.0669 702.306 89.4289 702.428 88.8135C702.551 88.1981 702.853 87.6327 703.296 87.189C703.74 86.7453 704.305 86.4431 704.921 86.3207C705.536 86.1983 706.174 86.2611 706.754 86.5013C707.334 86.7414 707.829 87.1481 708.178 87.6698C708.526 88.1916 708.713 88.805 708.713 89.4325C708.714 89.8494 708.632 90.2625 708.473 90.6479C708.314 91.0334 708.081 91.3836 707.786 91.6784C707.491 91.9732 707.141 92.2069 706.755 92.3659C706.37 92.525 705.957 92.6063 705.54 92.6052Z" fill="white"/>
<path d="M702.376 102.545V96.7969L701.062 98.0762L700.457 102.076C700.418 102.332 700.28 102.562 700.072 102.715C699.864 102.869 699.604 102.933 699.348 102.895C699.093 102.857 698.863 102.718 698.709 102.51C698.556 102.302 698.491 102.042 698.529 101.786L699.152 97.6413C699.152 97.6413 699.152 97.5901 699.152 97.5645V97.4366C699.169 97.3626 699.194 97.2909 699.229 97.2233C699.297 97.0621 699.409 96.9232 699.553 96.8225L702.504 93.8716C702.576 93.7878 702.665 93.7202 702.765 93.6732C702.865 93.6261 702.973 93.6007 703.084 93.5986H707.86C708.002 93.6006 708.14 93.6413 708.261 93.7165C708.381 93.7917 708.478 93.8984 708.542 94.0251C708.586 94.0635 708.626 94.1064 708.661 94.153L710.683 97.6583L714.376 99.799C714.488 99.8618 714.586 99.9464 714.665 100.048C714.744 100.149 714.801 100.265 714.835 100.389C714.868 100.513 714.876 100.642 714.859 100.769C714.842 100.897 714.799 101.019 714.734 101.13C714.604 101.352 714.391 101.515 714.142 101.582C713.893 101.649 713.628 101.615 713.403 101.488L709.779 99.3896C709.651 99.3591 709.532 99.3034 709.426 99.2258C709.321 99.1481 709.232 99.0501 709.165 98.9376L708.644 98.0251V102.426L709.421 103.56C709.549 103.748 709.628 103.965 709.651 104.191C709.67 104.235 709.684 104.281 709.693 104.328L710.546 109.633C710.593 110.017 710.484 110.404 710.245 110.709C710.006 111.014 709.656 111.211 709.271 111.257C708.887 111.304 708.5 111.195 708.195 110.956C707.89 110.717 707.693 110.367 707.647 109.982L707.058 105.3C707.058 105.3 706.998 105.249 706.981 105.215L705.694 103.347H705.327V104.899C705.327 104.984 705.284 105.061 705.276 105.147C705.261 105.492 705.148 105.826 704.952 106.11L701.847 110.503C701.607 110.807 701.256 111.004 700.87 111.051C700.485 111.097 700.097 110.989 699.792 110.75C699.488 110.511 699.291 110.162 699.244 109.778C699.198 109.394 699.306 109.007 699.544 108.703L702.419 104.993C702.419 104.993 702.419 104.933 702.419 104.899L702.376 102.545Z" fill="white"/>
<path d="M1014.82 75.9529L1028.5 72.3709L1058.73 72.9679L1071.37 71.4327L1086.7 68.3197L1081.15 64.9082L1069.69 68.0638H1057.88L1036.15 67.6289L1029.25 69.5564L1014.63 65.7611L1014.82 75.9529Z" fill="#844029"/>
<path d="M1113.99 67.8959L1116.71 65.7637L1121.55 66.8298L1128.28 67.8959L1132.19 66.1901L1135.74 68.7487L1120.74 70.4374L1113.99 67.8959Z" fill="#844029"/>
<path d="M1135.74 68.7504L1140.65 66.2003L1147 67.4796L1154.3 66.9423L1161.26 67.4796L1174.3 63.4199L1178.38 64.776L1161.8 70.9679L1152.68 70.4391L1144.2 71.4369L1135.74 68.7504Z" fill="#844029"/>
<path d="M1178.38 64.7776L1181.55 62.9951L1188.29 63.8906L1206.73 62.9951L1222.88 65.7243L1226.57 67.4727L1206.64 67.4301L1187.73 68.9055L1178.38 64.7776Z" fill="#844029"/>
<path d="M1253.86 67.8953L1257.48 66.002L1260.84 66.9486L1284.42 66.9657L1292.24 68.3218L1260.56 69.7461L1253.86 67.8953Z" fill="#844029"/>
<path d="M1292.24 68.3269L1297.47 66.6723L1314.89 64.2757L1340.21 64.8898L1352.11 62.5273L1357.06 64.0625L1340.21 67.8834H1306.71L1292.24 68.3269Z" fill="#844029"/>
<path d="M1357.06 64.0586L1361.13 62.5234L1375.88 63.291L1387.76 61.8496V65.4232H1383.37L1357.06 64.0586Z" fill="#844029"/>
<path d="M1018.13 101.914L1028.31 104.61L1087.49 110.298L1120.74 112.03L1175.09 110.187L1234.94 100.968L1139.64 103.833L1018.13 101.914Z" fill="#683321"/>
<path d="M1303.64 107.629L1292.24 102.546L1383.47 98L1364.3 107.586L1303.64 107.629Z" fill="#683321"/>
<path d="M1151.11 87.5737C1151.74 87.5805 1152.36 87.3993 1152.88 87.0533C1153.41 86.7072 1153.82 86.2121 1154.07 85.631C1154.31 85.0499 1154.38 84.4092 1154.25 83.7906C1154.13 83.172 1153.83 82.6035 1153.38 82.1578C1152.94 81.712 1152.37 81.4092 1151.75 81.2878C1151.13 81.1665 1150.49 81.2322 1149.91 81.4766C1149.33 81.7209 1148.83 82.1328 1148.49 82.6598C1148.14 83.1867 1147.96 83.8048 1147.97 84.4351C1147.98 85.2648 1148.31 86.058 1148.9 86.6446C1149.48 87.2313 1150.28 87.5648 1151.11 87.5737Z" fill="white"/>
<path d="M1157.02 92.8557C1157 92.786 1156.98 92.7194 1156.94 92.6596C1156.91 92.5991 1156.88 92.5419 1156.84 92.489L1154.18 89.0775C1154.15 89.0496 1154.12 89.0239 1154.09 89.0007C1154 88.8572 1153.88 88.7395 1153.73 88.6589C1153.58 88.5782 1153.41 88.5373 1153.24 88.5402H1148.97C1148.83 88.5403 1148.68 88.5732 1148.55 88.6367C1148.41 88.7001 1148.29 88.7923 1148.2 88.9069C1148.13 88.9541 1148.06 89.0116 1148 89.0775L1145.34 92.489L1145.24 92.6596C1145.2 92.7212 1145.18 92.7872 1145.16 92.8557C1145.13 92.9852 1145.12 93.1211 1145.14 93.2538C1145.16 93.3865 1145.21 93.5127 1145.29 93.6233L1147.72 97.2907C1147.78 97.3815 1147.86 97.4597 1147.95 97.5209V105.615C1147.94 105.816 1147.96 106.019 1148.03 106.209C1148.1 106.4 1148.2 106.575 1148.34 106.723C1148.48 106.872 1148.64 106.99 1148.83 107.071C1149.01 107.152 1149.21 107.193 1149.41 107.193C1149.62 107.193 1149.82 107.152 1150 107.071C1150.19 106.99 1150.35 106.872 1150.49 106.723C1150.63 106.575 1150.73 106.4 1150.8 106.209C1150.87 106.019 1150.89 105.816 1150.88 105.615V98.3056H1151.36V105.615C1151.35 105.816 1151.37 106.019 1151.44 106.209C1151.51 106.4 1151.61 106.575 1151.75 106.723C1151.89 106.872 1152.05 106.99 1152.24 107.071C1152.42 107.152 1152.62 107.193 1152.83 107.193C1153.03 107.193 1153.23 107.152 1153.41 107.071C1153.6 106.99 1153.76 106.872 1153.9 106.723C1154.04 106.575 1154.14 106.4 1154.21 106.209C1154.28 106.019 1154.3 105.816 1154.29 105.615V97.4783C1154.36 97.4245 1154.42 97.3614 1154.48 97.2907L1156.91 93.6233C1156.98 93.5104 1157.02 93.3837 1157.04 93.2514C1157.06 93.1191 1157.05 92.9842 1157.02 92.8557ZM1147.3 93.1457L1147.94 92.2928V94.0753L1147.3 93.1457ZM1154.28 94.0412V92.3866L1154.88 93.1457L1154.28 94.0412Z" fill="white"/>
<path d="M1356.49 84.7145C1357.12 84.7162 1357.73 84.5313 1358.25 84.1834C1358.78 83.8354 1359.18 83.34 1359.43 82.7599C1359.67 82.1798 1359.73 81.5412 1359.61 80.925C1359.49 80.3087 1359.18 79.7426 1358.74 79.2984C1358.3 78.8542 1357.73 78.5518 1357.11 78.4297C1356.5 78.3075 1355.86 78.3711 1355.28 78.6123C1354.7 78.8535 1354.2 79.2614 1353.85 79.7845C1353.51 80.3075 1353.32 80.9221 1353.32 81.5504C1353.33 82.3888 1353.66 83.1924 1354.25 83.7853C1354.85 84.3782 1355.65 84.7123 1356.49 84.7145Z" fill="white"/>
<path d="M1362.4 89.9943C1362.38 89.925 1362.36 89.8587 1362.32 89.7981C1362.29 89.7394 1362.26 89.6825 1362.22 89.6275L1359.56 86.216C1359.56 86.216 1359.5 86.216 1359.47 86.1393C1359.38 85.9969 1359.25 85.8801 1359.11 85.7996C1358.96 85.7191 1358.79 85.6775 1358.62 85.6787H1354.36C1354.21 85.6801 1354.06 85.7137 1353.93 85.777C1353.8 85.8404 1353.68 85.932 1353.59 86.0455C1353.52 86.0955 1353.45 86.1527 1353.39 86.216L1350.73 89.6275C1350.69 89.6825 1350.66 89.7394 1350.63 89.7981C1350.59 89.8587 1350.57 89.925 1350.55 89.9943C1350.52 90.1234 1350.51 90.2586 1350.53 90.3909C1350.55 90.5232 1350.6 90.6496 1350.67 90.7619L1353.1 94.4292C1353.17 94.5209 1353.25 94.5991 1353.34 94.6595V102.753C1353.34 103.14 1353.49 103.511 1353.77 103.785C1354.04 104.058 1354.41 104.212 1354.8 104.212C1355.19 104.212 1355.56 104.058 1355.83 103.785C1356.1 103.511 1356.26 103.14 1356.26 102.753V95.4441H1356.75V102.753C1356.74 102.955 1356.76 103.157 1356.83 103.348C1356.9 103.539 1357 103.714 1357.14 103.862C1357.28 104.01 1357.44 104.129 1357.63 104.209C1357.81 104.29 1358.01 104.332 1358.21 104.332C1358.42 104.332 1358.62 104.29 1358.8 104.209C1358.99 104.129 1359.15 104.01 1359.29 103.862C1359.43 103.714 1359.53 103.539 1359.6 103.348C1359.67 103.157 1359.69 102.955 1359.68 102.753V94.6169C1359.75 94.5609 1359.81 94.498 1359.86 94.4292L1362.29 90.7619C1362.36 90.6499 1362.41 90.5231 1362.43 90.3904C1362.45 90.2578 1362.44 90.1225 1362.4 89.9943ZM1352.68 90.2843L1353.32 89.4314V91.2565L1352.68 90.2843ZM1359.66 91.1883V89.4826L1360.25 90.2416L1359.66 91.1883Z" fill="white"/>
<path d="M1170 88.9323C1170.63 88.9323 1171.24 88.7462 1171.76 88.3976C1172.28 88.049 1172.69 87.5535 1172.93 86.9737C1173.17 86.394 1173.23 85.7561 1173.11 85.1406C1172.99 84.5252 1172.69 83.9599 1172.24 83.5162C1171.8 83.0725 1171.23 82.7703 1170.62 82.6479C1170 82.5255 1169.36 82.5883 1168.78 82.8284C1168.2 83.0686 1167.71 83.4752 1167.36 83.997C1167.01 84.5187 1166.83 85.1321 1166.83 85.7596C1166.83 86.6011 1167.16 87.408 1167.75 88.003C1168.35 88.598 1169.16 88.9323 1170 88.9323Z" fill="white"/>
<path d="M1179.73 93.0985L1175.39 92.8597L1173.88 92.1774L1175.74 92.3906C1175.87 92.4058 1176.01 92.3932 1176.13 92.3536C1176.26 92.3139 1176.38 92.2481 1176.48 92.1603L1179.94 89.5079C1180.15 89.3507 1180.28 89.1195 1180.32 88.8641C1180.35 88.6087 1180.28 88.3498 1180.13 88.1433C1179.97 87.9384 1179.74 87.804 1179.48 87.7689C1179.23 87.7338 1178.97 87.8009 1178.76 87.9557L1175.55 90.4034L1171.64 89.9599C1171.55 89.9599 1171.47 89.9087 1171.39 89.9087H1168.64C1168.17 89.9087 1167.71 90.0983 1167.37 90.4358C1167.03 90.7733 1166.84 91.231 1166.84 91.7083V99.6571V100.834L1165.87 106.062C1165.78 106.439 1165.84 106.837 1166.04 107.169C1166.24 107.501 1166.56 107.739 1166.94 107.832C1167.32 107.925 1167.72 107.864 1168.05 107.663C1168.38 107.463 1168.62 107.138 1168.71 106.762L1169.76 101.491C1169.79 101.27 1169.79 101.046 1169.76 100.826V99.6571H1171L1172.51 101.269C1172.51 101.269 1172.56 101.269 1172.57 101.32L1173.15 105.934C1173.2 106.319 1173.4 106.669 1173.7 106.908C1174.01 107.147 1174.39 107.256 1174.78 107.209C1175.16 107.163 1175.51 106.966 1175.75 106.661C1175.99 106.356 1176.1 105.969 1176.05 105.585L1175.16 100.288C1175.09 99.8763 1174.89 99.498 1174.59 99.2136L1173.18 97.7125V94.0025L1174.58 94.6337C1174.66 94.6539 1174.74 94.6539 1174.82 94.6337C1174.94 94.7132 1175.09 94.7601 1175.24 94.7701L1179.63 95.0089C1179.75 95.017 1179.88 94.9997 1180 94.9581C1180.12 94.9165 1180.23 94.8513 1180.33 94.7664C1180.42 94.6816 1180.5 94.5786 1180.56 94.4636C1180.61 94.3486 1180.64 94.2237 1180.65 94.0964C1180.66 93.8433 1180.56 93.5982 1180.39 93.4122C1180.22 93.2263 1179.98 93.1139 1179.73 93.0985Z" fill="white"/>
<path d="M1165.15 90.0645H1163.92C1163.47 90.0645 1163.11 90.4272 1163.11 90.8747V97.4418C1163.11 97.8893 1163.47 98.252 1163.92 98.252H1165.15C1165.59 98.252 1165.96 97.8893 1165.96 97.4418V90.8747C1165.96 90.4272 1165.59 90.0645 1165.15 90.0645Z" fill="white"/>
<path d="M1112.61 88.7936C1111.98 88.7936 1111.37 88.6076 1110.85 88.2589C1110.32 87.9103 1109.92 87.4148 1109.68 86.8351C1109.44 86.2553 1109.37 85.6174 1109.5 85.002C1109.62 84.3865 1109.92 83.8212 1110.36 83.3775C1110.81 82.9338 1111.37 82.6316 1111.99 82.5092C1112.6 82.3868 1113.24 82.4496 1113.82 82.6898C1114.4 82.9299 1114.9 83.3365 1115.25 83.8583C1115.59 84.38 1115.78 84.9934 1115.78 85.6209C1115.78 86.4617 1115.44 87.2674 1114.85 87.8619C1114.25 88.4564 1113.45 88.7914 1112.61 88.7936Z" fill="white"/>
<path d="M1102.96 93.496L1107.05 93.0355L1109.73 90.3575C1109.85 90.178 1110.01 90.0307 1110.2 89.9282C1110.4 89.8258 1110.61 89.7711 1110.83 89.769H1114.38C1114.55 89.7717 1114.71 89.8064 1114.87 89.8713C1114.87 89.8713 1114.87 89.8713 1114.93 89.8713L1118.88 91.0739L1122.29 89.6496L1122.53 87.3809C1122.54 87.3025 1122.58 87.2312 1122.64 87.1819C1122.7 87.1327 1122.78 87.1092 1122.86 87.1165H1123.32C1123.4 87.1252 1123.47 87.1649 1123.52 87.2271C1123.58 87.2893 1123.6 87.369 1123.59 87.4492L1123.37 89.5131C1123.59 89.6137 1123.76 89.7898 1123.85 90.0078C1123.95 90.2465 1123.95 90.5149 1123.85 90.7545C1123.76 90.9941 1123.57 91.1855 1123.33 91.2871L1123.18 91.3468L1121.38 108.455C1121.38 108.535 1121.34 108.609 1121.27 108.66C1121.21 108.711 1121.13 108.736 1121.05 108.728L1120.59 108.677C1120.51 108.669 1120.44 108.629 1120.39 108.567C1120.34 108.504 1120.31 108.425 1120.32 108.345L1122.02 91.8159L1119.24 92.9758C1119.1 93.0425 1118.96 93.0773 1118.81 93.0773C1118.66 93.0773 1118.51 93.0425 1118.38 92.9758L1115.72 92.1229V106.792C1115.69 107.161 1115.53 107.505 1115.26 107.757C1114.98 108.008 1114.63 108.148 1114.26 108.148C1113.89 108.148 1113.53 108.008 1113.26 107.757C1112.99 107.505 1112.82 107.161 1112.8 106.792V99.4747H1112.3V101.001C1112.31 101.087 1112.31 101.172 1112.3 101.257C1112.28 101.602 1112.17 101.935 1111.98 102.221L1108.87 106.613C1108.76 106.779 1108.61 106.919 1108.44 107.026C1108.27 107.133 1108.08 107.203 1107.89 107.234C1107.69 107.264 1107.48 107.253 1107.29 107.202C1107.1 107.151 1106.91 107.061 1106.76 106.937C1106.6 106.813 1106.47 106.659 1106.37 106.482C1106.28 106.306 1106.22 106.112 1106.2 105.912C1106.18 105.712 1106.21 105.511 1106.27 105.32C1106.33 105.13 1106.44 104.955 1106.57 104.805L1109.44 101.104C1109.44 101.07 1109.44 101.035 1109.44 101.001V93.3255L1108.22 94.5536C1108.14 94.6268 1108.04 94.6898 1107.94 94.7412H1107.86C1107.77 94.7864 1107.67 94.818 1107.58 94.8351L1103.21 95.3212C1102.95 95.3506 1102.7 95.2768 1102.49 95.1161C1102.29 94.9553 1102.16 94.7208 1102.13 94.4641C1102.1 94.2073 1102.18 93.9494 1102.34 93.7471C1102.5 93.5448 1102.73 93.4146 1102.99 93.3852L1102.96 93.496Z" fill="white"/>
<path d="M1317.61 86.4831C1316.98 86.4831 1316.36 86.2968 1315.84 85.9478C1315.32 85.5988 1314.91 85.1028 1314.67 84.5225C1314.43 83.9423 1314.37 83.304 1314.49 82.6883C1314.62 82.0726 1314.92 81.5073 1315.36 81.0639C1315.81 80.6206 1316.38 80.3191 1316.99 80.1976C1317.61 80.0762 1318.25 80.1402 1318.83 80.3817C1319.4 80.6231 1319.9 81.0311 1320.25 81.5539C1320.6 82.0768 1320.78 82.6911 1320.78 83.3189C1320.78 83.7352 1320.7 84.1473 1320.54 84.5318C1320.38 84.9162 1320.14 85.2654 1319.85 85.5593C1319.55 85.8533 1319.2 86.0862 1318.82 86.2447C1318.43 86.4032 1318.02 86.4842 1317.61 86.4831Z" fill="white"/>
<path d="M1307.97 91.1878L1312.04 90.7273L1314.72 88.0492C1314.85 87.8696 1315.01 87.7224 1315.2 87.62C1315.4 87.5175 1315.61 87.463 1315.83 87.4608H1319.4C1319.56 87.4605 1319.72 87.4924 1319.87 87.5546H1319.94L1323.89 88.7486L1327.3 87.3243L1327.54 85.0642C1327.55 84.9842 1327.59 84.9108 1327.65 84.8597C1327.71 84.8087 1327.79 84.7841 1327.87 84.7913L1328.33 84.8424C1328.41 84.8511 1328.49 84.8907 1328.54 84.9529C1328.59 85.0152 1328.61 85.0949 1328.61 85.1751L1328.39 87.239C1328.56 87.3112 1328.71 87.4337 1328.81 87.5908C1328.92 87.7479 1328.98 87.9327 1328.98 88.1217C1328.98 88.3108 1328.92 88.4955 1328.81 88.6527C1328.71 88.8098 1328.56 88.9322 1328.39 89.0045L1328.24 89.0642L1326.44 106.181C1326.43 106.26 1326.39 106.331 1326.33 106.38C1326.27 106.43 1326.19 106.453 1326.11 106.446L1325.65 106.395C1325.57 106.386 1325.49 106.346 1325.44 106.284C1325.39 106.222 1325.37 106.142 1325.37 106.062L1327.08 89.5332L1324.3 90.7017C1324.16 90.7613 1324.02 90.7877 1323.87 90.7788C1323.72 90.7699 1323.57 90.7259 1323.45 90.6505L1320.79 89.8488V104.51C1320.8 104.711 1320.77 104.914 1320.71 105.104C1320.64 105.295 1320.54 105.47 1320.4 105.618C1320.26 105.767 1320.1 105.885 1319.91 105.966C1319.73 106.047 1319.53 106.088 1319.32 106.088C1319.12 106.088 1318.92 106.047 1318.74 105.966C1318.55 105.885 1318.38 105.767 1318.25 105.618C1318.11 105.47 1318 105.295 1317.94 105.104C1317.87 104.914 1317.85 104.711 1317.86 104.51V97.2262H1317.37V98.7528C1317.37 98.8367 1317.35 98.9196 1317.32 99.0001C1317.31 99.3467 1317.2 99.6825 1317.01 99.9724L1313.89 104.356C1313.78 104.507 1313.63 104.634 1313.46 104.728C1313.3 104.823 1313.11 104.883 1312.92 104.907C1312.73 104.93 1312.54 104.916 1312.35 104.864C1312.17 104.813 1311.99 104.726 1311.84 104.608C1311.69 104.49 1311.57 104.343 1311.47 104.176C1311.38 104.009 1311.32 103.825 1311.29 103.634C1311.27 103.444 1311.28 103.251 1311.34 103.066C1311.39 102.881 1311.47 102.708 1311.59 102.557L1314.47 98.8466C1314.47 98.8466 1314.47 98.7869 1314.47 98.7528V91.0769L1313.24 92.3051C1313.16 92.3858 1313.06 92.4496 1312.96 92.4927C1312.93 92.4977 1312.9 92.4977 1312.87 92.4927C1312.79 92.5402 1312.69 92.572 1312.6 92.5865L1308.22 93.0812C1308.1 93.0952 1307.97 93.084 1307.84 93.0483C1307.72 93.0126 1307.61 92.953 1307.51 92.8731C1307.41 92.7931 1307.32 92.6942 1307.26 92.5821C1307.2 92.47 1307.16 92.3469 1307.15 92.2198C1307.13 92.0927 1307.15 91.964 1307.18 91.8412C1307.22 91.7184 1307.28 91.6039 1307.36 91.5041C1307.44 91.4043 1307.54 91.3212 1307.65 91.2597C1307.76 91.1981 1307.88 91.1592 1308.01 91.1452L1307.97 91.1878Z" fill="white"/>
<path d="M1069.12 87.9684C1069.75 87.9701 1070.36 87.7853 1070.89 87.4373C1071.41 87.0893 1071.82 86.5939 1072.06 86.0138C1072.3 85.4337 1072.36 84.7951 1072.24 84.1789C1072.12 83.5626 1071.82 82.9965 1071.37 82.5523C1070.93 82.1081 1070.36 81.8057 1069.75 81.6836C1069.13 81.5614 1068.49 81.625 1067.91 81.8662C1067.33 82.1074 1066.84 82.5154 1066.49 83.0384C1066.14 83.5615 1065.95 84.176 1065.96 84.8043C1065.96 85.6434 1066.29 86.4483 1066.88 87.0417C1067.48 87.6351 1068.28 87.9684 1069.12 87.9684Z" fill="white"/>
<path d="M1078.23 95.395L1074.46 93.2202L1072.31 89.5016C1072.25 89.3883 1072.16 89.2895 1072.05 89.2117C1071.98 89.1285 1071.88 89.0622 1071.77 89.0168C1071.67 88.9713 1071.56 88.9477 1071.44 88.9473H1067.45C1067.25 88.9482 1067.05 88.9895 1066.86 89.0686C1066.68 89.1477 1066.51 89.2631 1066.37 89.4078L1063.42 92.3588C1063.28 92.4625 1063.18 92.6007 1063.11 92.7596C1063.07 92.8272 1063.05 92.8988 1063.03 92.9728V93.1008C1063.03 93.1008 1063.03 93.1519 1063.03 93.1775L1062.41 97.3225C1062.39 97.449 1062.4 97.5781 1062.43 97.7023C1062.46 97.8265 1062.51 97.9435 1062.59 98.0464C1062.66 98.1494 1062.76 98.2364 1062.87 98.3024C1062.98 98.3684 1063.1 98.4122 1063.23 98.4312C1063.35 98.4503 1063.48 98.4442 1063.61 98.4133C1063.73 98.3825 1063.85 98.3275 1063.95 98.2515C1064.05 98.1754 1064.14 98.0799 1064.21 97.9702C1064.27 97.8606 1064.32 97.739 1064.34 97.6125L1064.93 93.6125L1066.03 92.5208V100.197C1066.03 100.197 1066.03 100.256 1066.03 100.29L1063.16 104C1062.95 104.309 1062.86 104.687 1062.92 105.057C1062.97 105.428 1063.17 105.762 1063.46 105.993C1063.76 106.223 1064.13 106.331 1064.51 106.295C1064.88 106.26 1065.22 106.082 1065.47 105.8L1068.57 101.416C1068.76 101.126 1068.87 100.791 1068.89 100.444C1068.92 100.363 1068.93 100.281 1068.94 100.197V98.67H1069.44L1070.72 100.538C1070.75 100.566 1070.78 100.591 1070.81 100.615L1071.39 105.297C1071.45 105.666 1071.66 105.996 1071.96 106.219C1072.26 106.442 1072.64 106.541 1073.01 106.497C1073.38 106.452 1073.72 106.266 1073.96 105.978C1074.2 105.69 1074.32 105.321 1074.3 104.947L1073.44 99.6508C1073.45 99.6026 1073.45 99.5541 1073.44 99.5058C1073.42 99.281 1073.35 99.0648 1073.22 98.8747L1072.44 97.7404V93.3481L1072.97 94.2607C1073.04 94.3899 1073.15 94.4982 1073.28 94.5762C1073.36 94.6911 1073.47 94.7871 1073.59 94.8577L1077.39 97.0581C1077.62 97.1882 1077.89 97.223 1078.14 97.1551C1078.39 97.0871 1078.61 96.9218 1078.74 96.6956C1078.87 96.4694 1078.9 96.2008 1078.83 95.9489C1078.77 95.697 1078.6 95.4824 1078.37 95.3524L1078.23 95.395Z" fill="white"/>
<path d="M1191.46 86.7721C1192.09 86.7738 1192.71 86.5892 1193.23 86.2416C1193.75 85.894 1194.16 85.3991 1194.4 84.8195C1194.64 84.2399 1194.71 83.6017 1194.59 82.9857C1194.46 82.3697 1194.16 81.8036 1193.72 81.359C1193.28 80.9145 1192.71 80.6115 1192.1 80.4883C1191.48 80.3652 1190.84 80.4276 1190.26 80.6674C1189.68 80.9073 1189.19 81.314 1188.84 81.8359C1188.49 82.3578 1188.3 82.9716 1188.3 83.5994C1188.3 84.4394 1188.63 85.2451 1189.23 85.8399C1189.82 86.4346 1190.62 86.7699 1191.46 86.7721Z" fill="white"/>
<path d="M1200.59 94.2014L1196.83 92.0266L1194.68 88.2995C1194.61 88.1874 1194.52 88.0891 1194.42 88.0095C1194.34 87.9264 1194.24 87.8601 1194.14 87.8146C1194.03 87.7692 1193.92 87.7456 1193.8 87.7451H1189.82C1189.62 87.7447 1189.42 87.7862 1189.23 87.8669C1189.05 87.9477 1188.88 88.0659 1188.74 88.2142L1185.79 91.1651C1185.65 91.2683 1185.55 91.4067 1185.48 91.566C1185.44 91.6371 1185.42 91.7114 1185.4 91.7877V91.9157C1185.4 91.9157 1185.4 91.9668 1185.4 91.9924L1184.78 96.1289C1184.76 96.2582 1184.76 96.3903 1184.8 96.5171C1184.83 96.6439 1184.89 96.7628 1184.97 96.8666C1185.05 96.9703 1185.15 97.0567 1185.26 97.1205C1185.37 97.1843 1185.5 97.2242 1185.63 97.2376C1185.76 97.2555 1185.89 97.2476 1186.02 97.2143C1186.14 97.181 1186.26 97.123 1186.36 97.0436C1186.47 96.9642 1186.55 96.865 1186.62 96.7519C1186.68 96.6388 1186.72 96.514 1186.74 96.3847L1187.34 92.3933L1188.44 91.2931V98.9689C1188.44 98.9689 1188.44 99.0286 1188.44 99.0628L1185.56 102.773C1185.32 103.078 1185.22 103.466 1185.26 103.85C1185.31 104.235 1185.51 104.585 1185.81 104.824C1186.12 105.063 1186.51 105.17 1186.89 105.123C1187.28 105.076 1187.63 104.878 1187.87 104.572L1190.97 100.189C1191.17 99.9004 1191.28 99.564 1191.29 99.2163C1191.29 99.131 1191.35 99.0542 1191.35 98.9689V97.4423H1191.84L1193.13 99.3016C1193.13 99.3016 1193.19 99.3527 1193.21 99.3869L1193.79 104.069C1193.81 104.268 1193.86 104.463 1193.95 104.641C1194.04 104.819 1194.17 104.976 1194.32 105.104C1194.47 105.232 1194.65 105.327 1194.84 105.383C1195.03 105.44 1195.23 105.456 1195.43 105.433C1195.63 105.409 1195.82 105.345 1195.99 105.245C1196.17 105.144 1196.32 105.01 1196.44 104.849C1196.55 104.689 1196.64 104.506 1196.69 104.312C1196.73 104.118 1196.74 103.916 1196.7 103.719L1195.85 98.4146C1195.85 98.3692 1195.85 98.3235 1195.85 98.2781C1195.83 98.0518 1195.75 97.8347 1195.62 97.647L1194.84 96.5127V92.1118L1195.36 93.0244C1195.45 93.1547 1195.56 93.2652 1195.69 93.3485C1195.77 93.4632 1195.87 93.5592 1195.99 93.63L1199.8 95.8304C1200.02 95.9576 1200.29 95.9913 1200.54 95.9242C1200.79 95.8572 1201 95.6948 1201.13 95.4722C1201.18 95.3536 1201.2 95.2263 1201.2 95.0978C1201.2 94.9692 1201.18 94.842 1201.13 94.7235C1201.08 94.6051 1201 94.4979 1200.91 94.4082C1200.82 94.3186 1200.71 94.2482 1200.59 94.2014Z" fill="white"/>
<path d="M58.1489 109.168L155.786 104.759C155.786 104.759 221.935 106.772 220.195 106.968L166.617 112.818L78.507 111.727L58.1489 109.168Z" fill="#683321"/>
<path d="M262.353 104.761L381.798 106.936L355.597 109.929L321.465 110.296L262.353 104.761Z" fill="#683321"/>
<path d="M36.196 108.887L0.588483 104.776L0 110.636L24.4434 111.181L36.196 108.887Z" fill="#683321"/>
<path d="M318.352 89.7887C318.98 89.7887 319.593 89.6027 320.115 89.254C320.637 88.9054 321.043 88.4099 321.284 87.8302C321.524 87.2505 321.587 86.6125 321.464 85.9971C321.342 85.3816 321.04 84.8163 320.596 84.3726C320.152 83.9289 319.587 83.6267 318.971 83.5043C318.356 83.3819 317.718 83.4447 317.138 83.6849C316.559 83.925 316.063 84.3316 315.714 84.8534C315.366 85.3751 315.18 85.9886 315.18 86.6161C315.18 87.4575 315.514 88.2645 316.109 88.8595C316.704 89.4545 317.511 89.7887 318.352 89.7887Z" fill="white"/>
<path d="M324.263 95.0514C324.245 94.9833 324.219 94.9175 324.186 94.8552L324.092 94.6676L321.431 91.2561C321.431 91.2561 321.372 91.2134 321.346 91.1793C321.254 91.037 321.128 90.9201 320.979 90.8396C320.83 90.7591 320.663 90.7175 320.493 90.7188H316.229C316.082 90.719 315.936 90.752 315.804 90.8154C315.671 90.8789 315.554 90.9711 315.461 91.0855C315.39 91.1356 315.325 91.1927 315.265 91.2561L312.604 94.6676C312.562 94.7162 312.528 94.7708 312.502 94.8296C312.465 94.8902 312.439 94.9565 312.425 95.0258C312.39 95.1563 312.382 95.2928 312.403 95.4264C312.423 95.5601 312.472 95.688 312.544 95.8019L314.975 99.4607C315.039 99.5498 315.116 99.6276 315.205 99.691V107.793C315.234 108.162 315.4 108.506 315.671 108.758C315.942 109.009 316.298 109.148 316.668 109.148C317.038 109.148 317.394 109.009 317.665 108.758C317.936 108.506 318.103 108.162 318.131 107.793V100.476H318.617V107.793C318.645 108.162 318.811 108.506 319.083 108.758C319.354 109.009 319.71 109.148 320.08 109.148C320.449 109.148 320.805 109.009 321.077 108.758C321.348 108.506 321.514 108.162 321.542 107.793V99.6484C321.615 99.5969 321.678 99.5335 321.73 99.4607L324.161 95.8019C324.227 95.69 324.27 95.5659 324.288 95.437C324.305 95.3081 324.297 95.177 324.263 95.0514ZM314.54 95.3414L315.18 94.4885V96.2795L314.54 95.3414ZM321.517 96.2454V94.5823L322.114 95.3414L321.517 96.2454Z" fill="white"/>
<path d="M361.09 90.068C361.718 90.068 362.331 89.882 362.853 89.5333C363.375 89.1847 363.781 88.6892 364.021 88.1095C364.261 87.5298 364.324 86.8918 364.202 86.2764C364.079 85.6609 363.777 85.0956 363.334 84.6519C362.89 84.2082 362.325 83.906 361.709 83.7836C361.094 83.6612 360.456 83.724 359.876 83.9642C359.296 84.2043 358.801 84.611 358.452 85.1327C358.104 85.6544 357.917 86.2678 357.917 86.8953C357.916 87.3123 357.998 87.7254 358.157 88.1108C358.316 88.4963 358.549 88.8465 358.844 89.1413C359.139 89.4361 359.489 89.6698 359.875 89.8288C360.26 89.9879 360.673 90.0692 361.09 90.068Z" fill="white"/>
<path d="M370.813 94.2341L366.472 93.9953L364.97 93.313L366.821 93.5262C366.954 93.5419 367.089 93.5296 367.217 93.4899C367.345 93.4502 367.463 93.3841 367.563 93.2959L371.034 90.6435C371.239 90.4863 371.373 90.2542 371.407 89.9983C371.44 89.7424 371.371 89.4836 371.214 89.2789C371.056 89.0742 370.824 88.9403 370.568 88.9067C370.312 88.8731 370.054 88.9426 369.849 89.0998L366.642 91.5475L362.727 91.0955C362.642 91.0955 362.565 91.0443 362.48 91.0443H359.734C359.257 91.0443 358.799 91.2339 358.461 91.5714C358.124 91.9089 357.934 92.3666 357.934 92.8439V100.801V101.97L356.962 107.198C356.897 107.564 356.973 107.941 357.176 108.252C357.378 108.564 357.691 108.787 358.052 108.877C358.412 108.967 358.793 108.917 359.118 108.737C359.443 108.556 359.688 108.259 359.802 107.906L360.851 102.626C360.889 102.409 360.889 102.187 360.851 101.97V100.801H362.062L363.58 102.405C363.599 102.426 363.622 102.444 363.649 102.456L364.22 107.07C364.233 107.269 364.286 107.464 364.376 107.641C364.467 107.819 364.592 107.977 364.746 108.105C364.899 108.232 365.077 108.327 365.269 108.384C365.46 108.44 365.661 108.457 365.859 108.433C366.057 108.41 366.248 108.345 366.421 108.245C366.594 108.145 366.744 108.01 366.863 107.85C366.981 107.69 367.066 107.507 367.112 107.313C367.158 107.118 367.163 106.917 367.128 106.72L366.233 101.424C366.165 101.011 365.961 100.633 365.653 100.349L364.246 98.8481V95.1381L365.644 95.7693C365.725 95.7898 365.81 95.7898 365.892 95.7693C366.017 95.8505 366.161 95.8975 366.309 95.9057L370.693 96.1445C370.951 96.1592 371.204 96.0709 371.397 95.8989C371.59 95.727 371.706 95.4855 371.721 95.2277C371.736 94.9698 371.647 94.7167 371.475 94.5239C371.303 94.3312 371.062 94.2147 370.804 94.2L370.813 94.2341Z" fill="white"/>
<path d="M356.237 91.1914H355.008C354.561 91.1914 354.198 91.5542 354.198 92.0016V98.5688C354.198 99.0162 354.561 99.379 355.008 99.379H356.237C356.684 99.379 357.047 99.0162 357.047 98.5688V92.0016C357.047 91.5542 356.684 91.1914 356.237 91.1914Z" fill="white"/>
<path d="M106.08 89.7887C106.708 89.7887 107.321 89.6027 107.843 89.254C108.365 88.9054 108.771 88.4099 109.012 87.8302C109.252 87.2505 109.315 86.6125 109.192 85.9971C109.07 85.3816 108.768 84.8163 108.324 84.3726C107.88 83.9289 107.315 83.6267 106.699 83.5043C106.084 83.3819 105.446 83.4447 104.866 83.6849C104.287 83.925 103.791 84.3316 103.442 84.8534C103.094 85.3751 102.908 85.9886 102.908 86.6161C102.908 87.4575 103.242 88.2645 103.837 88.8595C104.432 89.4545 105.239 89.7887 106.08 89.7887Z" fill="white"/>
<path d="M111.991 95.0514C111.947 94.9231 111.884 94.8022 111.803 94.6932L109.168 91.2561C109.168 91.2561 109.108 91.2134 109.083 91.1793C108.991 91.037 108.864 90.9201 108.715 90.8396C108.566 90.7591 108.399 90.7175 108.23 90.7188H103.965C103.818 90.719 103.673 90.752 103.54 90.8154C103.407 90.8789 103.29 90.9711 103.198 91.0855C103.127 91.1356 103.061 91.1927 103.002 91.2561L100.341 94.6676C100.299 94.7162 100.264 94.7708 100.238 94.8296C100.203 94.8917 100.174 94.9575 100.153 95.0258C100.121 95.1571 100.116 95.2935 100.138 95.4269C100.16 95.5602 100.209 95.6878 100.281 95.8019L102.712 99.4607C102.773 99.5516 102.851 99.6298 102.942 99.691V107.793C102.97 108.162 103.136 108.506 103.407 108.758C103.679 109.009 104.035 109.148 104.404 109.148C104.774 109.148 105.13 109.009 105.401 108.758C105.673 108.506 105.839 108.162 105.867 107.793V100.476H106.353V107.793C106.381 108.162 106.548 108.506 106.819 108.758C107.09 109.009 107.446 109.148 107.816 109.148C108.186 109.148 108.542 109.009 108.813 108.758C109.084 108.506 109.25 108.162 109.279 107.793V99.6484C109.351 99.5969 109.415 99.5335 109.466 99.4607L111.897 95.8019C112.025 95.5734 112.058 95.3042 111.991 95.0514ZM102.268 95.3414L102.908 94.4885V96.2795L102.268 95.3414ZM109.245 96.2454V94.5823L109.842 95.3414L109.245 96.2454Z" fill="white"/>
<path d="M148.809 90.068C149.437 90.0697 150.051 89.8851 150.574 89.5375C151.097 89.1899 151.505 88.695 151.746 88.1154C151.988 87.5358 152.052 86.8976 151.93 86.2816C151.809 85.6656 151.508 85.0995 151.064 84.6549C150.621 84.2104 150.055 83.9074 149.44 83.7842C148.824 83.6611 148.186 83.7235 147.606 83.9633C147.025 84.2032 146.529 84.6099 146.18 85.1318C145.831 85.6537 145.645 86.2675 145.645 86.8953C145.644 87.3116 145.725 87.724 145.883 88.1088C146.042 88.4937 146.275 88.8435 146.569 89.1383C146.863 89.433 147.212 89.6668 147.596 89.8264C147.981 89.9859 148.393 90.068 148.809 90.068Z" fill="white"/>
<path d="M158.541 94.2385L154.2 93.9997L152.699 93.3174L154.549 93.5306C154.682 93.5463 154.817 93.534 154.945 93.4943C155.073 93.4546 155.191 93.3885 155.291 93.3003L158.754 90.6479C158.864 90.5739 158.957 90.4782 159.029 90.3667C159.101 90.2552 159.149 90.1303 159.17 89.9995C159.192 89.8688 159.186 89.7351 159.154 89.6065C159.122 89.4779 159.064 89.3573 158.984 89.2519C158.904 89.1466 158.803 89.0587 158.687 88.9938C158.572 88.9289 158.444 88.8883 158.312 88.8745C158.181 88.8606 158.047 88.8739 157.921 88.9134C157.794 88.9529 157.677 89.0178 157.577 89.1042L154.37 91.5434L150.455 91.0914C150.371 91.0694 150.286 91.0523 150.2 91.0402H147.453C146.978 91.0424 146.522 91.233 146.186 91.5703C145.851 91.9075 145.662 92.3639 145.662 92.8397V100.797V101.965L144.69 107.194C144.625 107.56 144.702 107.936 144.904 108.248C145.106 108.56 145.419 108.783 145.78 108.873C146.14 108.963 146.522 108.913 146.846 108.732C147.171 108.552 147.416 108.255 147.53 107.902L148.579 102.622C148.617 102.405 148.617 102.183 148.579 101.965V100.797H149.79L151.308 102.4C151.308 102.4 151.351 102.4 151.368 102.452L151.948 107.066C151.971 107.256 152.031 107.44 152.125 107.607C152.219 107.774 152.345 107.921 152.496 108.04C152.647 108.158 152.82 108.246 153.005 108.297C153.189 108.349 153.382 108.364 153.573 108.341C153.763 108.318 153.947 108.258 154.114 108.163C154.281 108.069 154.428 107.943 154.547 107.792C154.665 107.642 154.753 107.469 154.804 107.284C154.856 107.099 154.871 106.906 154.848 106.716L153.995 101.42C153.923 101.008 153.72 100.631 153.415 100.345L152.008 98.844V95.134L153.406 95.7651C153.485 95.7853 153.567 95.7853 153.645 95.7651C153.774 95.8456 153.92 95.8926 154.072 95.9016L158.455 96.1404C158.583 96.1476 158.711 96.1297 158.832 96.0876C158.952 96.0454 159.064 95.9799 159.159 95.8948C159.255 95.8097 159.332 95.7066 159.388 95.5914C159.443 95.4762 159.476 95.3512 159.483 95.2235C159.49 95.0958 159.472 94.968 159.43 94.8472C159.388 94.7265 159.323 94.6152 159.238 94.5198C159.152 94.4244 159.049 94.3466 158.934 94.291C158.819 94.2355 158.694 94.2031 158.566 94.1958L158.541 94.2385Z" fill="white"/>
<path d="M143.957 91.1914H142.729C142.281 91.1914 141.918 91.5542 141.918 92.0016V98.5688C141.918 99.0162 142.281 99.379 142.729 99.379H143.957C144.404 99.379 144.767 99.0162 144.767 98.5688V92.0016C144.767 91.5542 144.404 91.1914 143.957 91.1914Z" fill="white"/>
<path d="M287.419 87.2145C286.791 87.2162 286.176 87.0316 285.654 86.684C285.131 86.3364 284.723 85.8415 284.481 85.2619C284.24 84.6823 284.176 84.0441 284.297 83.4281C284.419 82.8121 284.72 82.246 285.164 81.8014C285.607 81.3569 286.172 81.0538 286.788 80.9307C287.404 80.8076 288.042 80.8699 288.622 81.1098C289.202 81.3497 289.698 81.7564 290.047 82.2783C290.396 82.8002 290.583 83.414 290.583 84.0418C290.583 84.8818 290.25 85.6875 289.656 86.2822C289.063 86.877 288.258 87.2123 287.419 87.2145Z" fill="white"/>
<path d="M277.747 91.9148L281.832 91.4542L284.502 88.7847C284.626 88.6045 284.791 88.4564 284.984 88.3526C285.177 88.2488 285.392 88.1923 285.611 88.1877H289.167C289.334 88.1912 289.499 88.2259 289.653 88.29H289.713L293.662 89.4926L297.073 88.0683L297.312 85.8082C297.315 85.7681 297.326 85.7291 297.345 85.6935C297.364 85.6579 297.389 85.6264 297.42 85.6009C297.451 85.5755 297.487 85.5565 297.526 85.5452C297.564 85.5339 297.605 85.5306 297.645 85.5353L298.105 85.5864C298.144 85.5907 298.183 85.6027 298.217 85.6217C298.252 85.6408 298.282 85.6665 298.307 85.6975C298.331 85.7284 298.35 85.7639 298.36 85.802C298.371 85.84 298.374 85.8798 298.37 85.9191L298.156 87.983C298.37 88.0802 298.541 88.2534 298.634 88.4692C298.733 88.7079 298.735 88.9763 298.637 89.2159C298.54 89.4555 298.352 89.6469 298.114 89.7485L297.96 89.8082L296.169 106.917C296.158 106.998 296.117 107.071 296.053 107.122C295.99 107.173 295.909 107.197 295.828 107.19L295.376 107.139C295.296 107.13 295.223 107.09 295.172 107.028C295.12 106.966 295.096 106.886 295.103 106.806L296.809 90.2772L294.02 91.4457C293.883 91.502 293.735 91.5267 293.588 91.5178C293.44 91.509 293.296 91.4668 293.167 91.3945L290.498 90.5416V105.211C290.469 105.58 290.303 105.924 290.032 106.175C289.761 106.427 289.405 106.566 289.035 106.566C288.665 106.566 288.309 106.427 288.038 106.175C287.767 105.924 287.6 105.58 287.572 105.211V97.8934H287.086V99.4286C287.077 99.5125 287.06 99.5954 287.035 99.6759C287.022 100.023 286.912 100.36 286.719 100.648L283.615 105.032C283.376 105.337 283.026 105.535 282.641 105.583C282.257 105.63 281.869 105.522 281.564 105.284C281.258 105.045 281.06 104.695 281.013 104.31C280.966 103.925 281.073 103.538 281.312 103.232L284.186 99.5224C284.182 99.4912 284.182 99.4597 284.186 99.4286V91.7527L282.967 92.9809C282.881 93.0589 282.783 93.1223 282.677 93.1685H282.6C282.511 93.2136 282.416 93.2452 282.318 93.2623L277.952 93.757C277.82 93.7812 277.684 93.7779 277.553 93.7475C277.422 93.717 277.299 93.66 277.191 93.58C277.083 93.4999 276.993 93.3986 276.926 93.2822C276.858 93.1658 276.816 93.0368 276.801 92.9033C276.786 92.7698 276.798 92.6346 276.837 92.5061C276.876 92.3776 276.941 92.2585 277.029 92.1562C277.116 92.0539 277.223 91.9706 277.344 91.9115C277.464 91.8523 277.596 91.8186 277.73 91.8124L277.747 91.9148Z" fill="white"/>
<path d="M182.967 90.0895C183.595 90.0912 184.21 89.9063 184.733 89.5584C185.256 89.2104 185.664 88.715 185.905 88.1349C186.146 87.5548 186.21 86.9162 186.088 86.3C185.965 85.6837 185.663 85.1176 185.219 84.6734C184.775 84.2292 184.209 83.9268 183.592 83.8047C182.976 83.6825 182.337 83.7461 181.757 83.9873C181.177 84.2285 180.682 84.6364 180.334 85.1595C179.986 85.6825 179.801 86.2971 179.803 86.9253C179.805 87.7638 180.139 88.5674 180.732 89.1603C181.325 89.7532 182.128 90.0873 182.967 90.0895Z" fill="white"/>
<path d="M192.067 97.5219L188.306 95.3471L186.157 91.6286C186.09 91.5148 186 91.4161 185.893 91.3386C185.813 91.2555 185.718 91.1892 185.613 91.1437C185.507 91.0983 185.393 91.0747 185.279 91.0742H181.296C181.095 91.0742 180.896 91.115 180.711 91.1942C180.526 91.2734 180.36 91.3892 180.221 91.5348L177.27 94.4857C177.129 94.587 177.02 94.7259 176.954 94.8866C176.92 94.9541 176.894 95.0258 176.878 95.0998V95.2277C176.878 95.2277 176.878 95.2789 176.878 95.3045L176.255 99.4494C176.236 99.5786 176.243 99.7102 176.276 99.8366C176.309 99.9629 176.367 100.081 176.446 100.185C176.526 100.288 176.625 100.375 176.739 100.439C176.853 100.503 176.978 100.544 177.108 100.558C177.237 100.576 177.368 100.568 177.494 100.535C177.62 100.502 177.738 100.444 177.841 100.364C177.944 100.285 178.031 100.186 178.095 100.072C178.16 99.9594 178.201 99.8346 178.217 99.7053L178.814 95.7053L179.914 94.6136V102.29C179.914 102.29 179.914 102.349 179.914 102.383L177.04 106.093C176.922 106.245 176.834 106.418 176.783 106.602C176.732 106.787 176.717 106.981 176.741 107.171C176.764 107.361 176.825 107.545 176.919 107.713C177.014 107.88 177.14 108.026 177.291 108.144C177.443 108.263 177.616 108.35 177.8 108.401C177.985 108.452 178.179 108.467 178.369 108.444C178.56 108.42 178.744 108.359 178.911 108.265C179.078 108.171 179.224 108.044 179.343 107.893L182.447 103.509C182.644 103.222 182.756 102.885 182.771 102.537C182.771 102.452 182.822 102.375 182.822 102.29V100.763H183.317L184.605 102.631C184.631 102.659 184.66 102.684 184.69 102.707L185.27 107.39C185.283 107.589 185.336 107.783 185.426 107.961C185.517 108.139 185.642 108.297 185.796 108.424C185.949 108.552 186.127 108.647 186.319 108.704C186.51 108.76 186.711 108.777 186.909 108.753C187.107 108.729 187.299 108.665 187.471 108.565C187.644 108.465 187.794 108.33 187.913 108.17C188.032 108.01 188.116 107.827 188.162 107.632C188.208 107.438 188.213 107.237 188.178 107.04L187.283 101.744C187.287 101.695 187.287 101.647 187.283 101.599C187.26 101.372 187.181 101.155 187.053 100.968L186.276 99.8332V95.5262L186.797 96.4388C186.878 96.5684 186.989 96.6766 187.121 96.7544C187.198 96.8721 187.304 96.9688 187.428 97.0358L191.232 99.2362C191.344 99.3001 191.467 99.3412 191.595 99.3573C191.723 99.3735 191.853 99.3642 191.977 99.3302C192.101 99.2961 192.218 99.2379 192.32 99.1589C192.421 99.0798 192.507 98.9815 192.571 98.8695C192.634 98.7575 192.676 98.634 192.692 98.5061C192.708 98.3782 192.699 98.2484 192.665 98.124C192.631 97.9997 192.572 97.8833 192.493 97.7814C192.414 97.6796 192.316 97.5943 192.204 97.5305L192.067 97.5219Z" fill="white"/>
<path d="M12.8443 90.4088C13.4722 90.4105 14.0864 90.2259 14.6093 89.8783C15.1322 89.5307 15.5402 89.0358 15.7816 88.4562C16.023 87.8766 16.0871 87.2384 15.9656 86.6224C15.8442 86.0064 15.5427 85.4403 15.0993 84.9958C14.6559 84.5512 14.0906 84.2482 13.475 84.1251C12.8593 84.002 12.2209 84.0643 11.6407 84.3042C11.0605 84.544 10.5645 84.9507 10.2155 85.4726C9.86647 85.9946 9.68018 86.6083 9.68018 87.2362C9.68241 88.0754 10.0162 88.8798 10.6089 89.4741C11.2016 90.0684 12.0051 90.4044 12.8443 90.4088Z" fill="white"/>
<path d="M21.9446 97.8501L18.1749 95.6752L16.0342 91.9567C15.9669 91.8429 15.8769 91.7442 15.7698 91.6667C15.6905 91.5836 15.5953 91.5173 15.4897 91.4719C15.3842 91.4264 15.2706 91.4028 15.1557 91.4023H11.1728C10.9718 91.4023 10.7729 91.4432 10.5882 91.5223C10.4035 91.6015 10.2368 91.7174 10.0982 91.8629L7.11311 94.8394C6.97195 94.9403 6.86248 95.0794 6.79754 95.2403C6.76081 95.3068 6.7349 95.3788 6.72078 95.4535V95.5814C6.72078 95.5814 6.72078 95.6326 6.72078 95.6582L6.09819 99.8032C6.0778 99.9324 6.08397 100.065 6.1163 100.191C6.14864 100.318 6.20648 100.437 6.28628 100.541C6.36609 100.645 6.46619 100.731 6.58048 100.795C6.69478 100.859 6.82086 100.898 6.95106 100.912C7.08002 100.93 7.21127 100.922 7.33714 100.889C7.46301 100.855 7.58099 100.797 7.68419 100.718C7.7874 100.638 7.87376 100.539 7.93825 100.426C8.00274 100.313 8.04405 100.188 8.0598 100.059L8.65681 96.059L9.75702 94.9674V102.643C9.75702 102.643 9.75702 102.711 9.75702 102.737L6.82313 106.481C6.57997 106.787 6.46807 107.176 6.51206 107.564C6.55604 107.952 6.7523 108.306 7.05767 108.549C7.36303 108.793 7.75249 108.904 8.14035 108.86C8.52822 108.816 8.88273 108.62 9.12589 108.315L12.2304 103.923C12.4269 103.635 12.5392 103.298 12.5544 102.95C12.5773 102.869 12.5944 102.786 12.6056 102.703V101.151H13.1003L14.3881 103.018C14.4144 103.046 14.4429 103.072 14.4734 103.095L15.0534 107.778C15.1198 108.145 15.3237 108.473 15.6237 108.695C15.9236 108.918 16.2971 109.017 16.6678 108.974C17.0386 108.93 17.3788 108.747 17.6192 108.461C17.8596 108.176 17.9821 107.809 17.9617 107.436L17.1088 102.132C17.0985 102.082 17.0843 102.034 17.0661 101.987C17.0436 101.763 16.9643 101.548 16.8359 101.364L16.0598 100.23V95.8288L16.58 96.7413C16.6633 96.8716 16.7739 96.9822 16.9041 97.0654C16.9851 97.1801 17.0898 97.2761 17.2111 97.3469L21.015 99.5388C21.127 99.6026 21.2504 99.6438 21.3783 99.6599C21.5062 99.676 21.6361 99.6668 21.7604 99.6327C21.8848 99.5987 22.0012 99.5404 22.103 99.4614C22.2049 99.3824 22.2901 99.284 22.354 99.172C22.4178 99.06 22.459 98.9365 22.4751 98.8086C22.4912 98.6807 22.482 98.5509 22.4479 98.4266C22.4139 98.3022 22.3557 98.1858 22.2766 98.084C22.1976 97.9821 22.0992 97.8969 21.9872 97.833L21.9446 97.8501Z" fill="white"/>
<path d="M24.4434 66.3469L44.1447 64.4877C46.8313 64.2403 69.441 70.4578 69.441 70.4578L96.4003 67.0463L106.055 70.4578L91.8631 73.0932L76.3834 77.2381L56.6649 77.9887L24.4434 66.3469Z" fill="#844029"/>
<path d="M106.055 70.5018L113.79 68.8216L145.645 67.9005L168.101 64.4805L174.378 65.1116L136.519 73.1371L106.055 70.5018Z" fill="#844029"/>
<path d="M174.378 65.1064L178.532 64.0488L203.436 65.9252L217.483 66.9401L264.118 66.1298L273.056 68.5691L219.35 71.23L191.18 69.746L174.378 65.1064Z" fill="#844029"/>
<path d="M273.056 68.5707L278.668 65.9268L316.519 69.5344L347.188 67.8969L363.41 71.6751L315.18 73.1335L277.628 70.4982L273.056 68.5707Z" fill="#844029"/>
<path d="M1206.91 17.9445C1211.87 17.9445 1215.89 13.9275 1215.89 8.97223C1215.89 4.01701 1211.87 0 1206.91 0C1201.96 0 1197.94 4.01701 1197.94 8.97223C1197.94 13.9275 1201.96 17.9445 1206.91 17.9445Z" fill="#C9AC68"/>
<path opacity="0.25" d="M1213.77 14.7686L1210.61 16.8837L1248.5 137.5H1313L1213.77 14.7686Z" fill="#C9AC68"/>
<path opacity="0.2" d="M1208.49 16.8867L1239.5 137.5H1176.5L1205.33 16.8867H1208.49Z" fill="#C9AC68"/>
<path opacity="0.3" d="M1204.28 16.8837L1161.5 137.5H1091L1201.11 14.7686L1204.28 16.8837Z" fill="#C9AC68"/>
<path opacity="0.2" d="M1199 11.6084L1010.5 137.5H1070.5L1200.06 13.715L1199 11.6084Z" fill="#C9AC68"/>
</svg>
